<svg xmlns="http://www.w3.org/2000/svg" version="1.1" xmlns:xlink="http://www.w3.org/1999/xlink" xmlns:svgjs="http://svgjs.com/svgjs" width="2000" height="1060" preserveAspectRatio="none" viewBox="0 0 2000 1060"><g mask="url(&quot;#SvgjsMask1271&quot;)" fill="none"><use xlink:href="#SvgjsG1273" transform="translate(0, 0)" fill="rgba(198, 198, 198, 1)"></use><use xlink:href="#SvgjsG1273" transform="translate(0, 615)" fill="rgba(198, 198, 198, 1)"></use><use xlink:href="#SvgjsG1273" transform="translate(615, 0)" fill="rgba(198, 198, 198, 1)"></use><use xlink:href="#SvgjsG1273" transform="translate(615, 615)" fill="rgba(198, 198, 198, 1)"></use><use xlink:href="#SvgjsG1273" transform="translate(1230, 0)" fill="rgba(198, 198, 198, 1)"></use><use xlink:href="#SvgjsG1273" transform="translate(1230, 615)" fill="rgba(198, 198, 198, 1)"></use><use xlink:href="#SvgjsG1273" transform="translate(1845, 0)" fill="rgba(198, 198, 198, 1)"></use><use xlink:href="#SvgjsG1273" transform="translate(1845, 615)" fill="rgba(198, 198, 198, 1)"></use></g><defs><mask id="SvgjsMask1271"><rect width="2000" height="1060" fill="#ffffff"></rect></mask><g id="SvgjsG1272"><path d="M11.57 0.84C7.67-1.15 2.88 0.43 0.87 4.36-1.13 8.31 0.4 13.11 4.3 15.09c3.9 1.99 8.69 0.41 10.7-3.53C17 7.63 15.47 2.82 11.57 0.84z m-6.43 12.61c-3-1.53-4.18-5.22-2.63-8.25C4.05 2.17 7.73 0.95 10.73 2.48c3 1.53 4.18 5.22 2.64 8.25C11.82 13.76 8.14 14.98 5.14 13.45z"></path><path d="M5.92 10.11l1.6 0.81L8.15 9.68c0.17-0.34 0.48-0.57 1.04-0.63 0.56-0.06 2.01-0.02 2.76-1.49 0.74-1.46 0.03-3.09-0.89-3.83-0.92-0.74-2.11-1.16-3.35-0.7-1.11 0.41-1.57 0.95-2.26 2.31l1.59 0.81 0.17-0.32c0.36-0.72 0.84-1.44 1.97-1.13 0.62 0.18 1.06 0.62 1.22 1.09 0.18 0.53-0.22 1.33-0.99 1.43l-1.21 0.15c-0.69 0.07-1.06 0.35-1.34 0.9l-0.94 1.84z m-1.16 2.26L5.59 10.73l1.61 0.82-0.83 1.64z"></path></g><g id="SvgjsG1273"><use xlink:href="#SvgjsG1272" transform="translate(0, 0) scale(1.5)" fill="rgba(198, 198, 198, 1)"></use><use xlink:href="#SvgjsG1272" transform="translate(0, 61.5) scale(1.5)" fill="rgba(198, 198, 198, 1)"></use><use xlink:href="#SvgjsG1272" transform="translate(0, 123) scale(1.5)" fill="rgba(198, 198, 198, 1)"></use><use xlink:href="#SvgjsG1272" transform="translate(0, 184.5) scale(1.5)" fill="rgba(198, 198, 198, 1)"></use><use xlink:href="#SvgjsG1272" transform="translate(0, 246) scale(1.5)" fill="rgba(198, 198, 198, 1)"></use><use xlink:href="#SvgjsG1272" transform="translate(0, 307.5) scale(1.5)" fill="rgba(198, 198, 198, 1)"></use><use xlink:href="#SvgjsG1272" transform="translate(0, 369) scale(1.5)" fill="rgba(198, 198, 198, 1)"></use><use xlink:href="#SvgjsG1272" transform="translate(0, 430.5) scale(1.5)" fill="rgba(198, 198, 198, 1)"></use><use xlink:href="#SvgjsG1272" transform="translate(0, 492) scale(1.5)" fill="rgba(198, 198, 198, 1)"></use><use xlink:href="#SvgjsG1272" transform="translate(0, 553.5) scale(1.5)" fill="rgba(198, 198, 198, 1)"></use><use xlink:href="#SvgjsG1272" transform="translate(61.5, 0) scale(1.5)" fill="rgba(198, 198, 198, 1)"></use><use xlink:href="#SvgjsG1272" transform="translate(61.5, 61.5) scale(1.5)" fill="rgba(198, 198, 198, 1)"></use><use xlink:href="#SvgjsG1272" transform="translate(61.5, 123) scale(1.5)" fill="rgba(198, 198, 198, 1)"></use><use xlink:href="#SvgjsG1272" transform="translate(61.5, 184.5) scale(1.5)" fill="rgba(198, 198, 198, 1)"></use><use xlink:href="#SvgjsG1272" transform="translate(61.5, 246) scale(1.5)" fill="rgba(198, 198, 198, 1)"></use><use xlink:href="#SvgjsG1272" transform="translate(61.5, 307.5) scale(1.5)" fill="rgba(198, 198, 198, 1)"></use><use xlink:href="#SvgjsG1272" transform="translate(61.5, 369) scale(1.5)" fill="rgba(198, 198, 198, 1)"></use><use xlink:href="#SvgjsG1272" transform="translate(61.5, 430.5) scale(1.5)" fill="rgba(198, 198, 198, 1)"></use><use xlink:href="#SvgjsG1272" transform="translate(61.5, 492) scale(1.5)" fill="rgba(198, 198, 198, 1)"></use><use xlink:href="#SvgjsG1272" transform="translate(61.5, 553.5) scale(1.5)" fill="rgba(198, 198, 198, 1)"></use><use xlink:href="#SvgjsG1272" transform="translate(123, 0) scale(1.5)" fill="rgba(198, 198, 198, 1)"></use><use xlink:href="#SvgjsG1272" transform="translate(123, 61.5) scale(1.5)" fill="rgba(198, 198, 198, 1)"></use><use xlink:href="#SvgjsG1272" transform="translate(123, 123) scale(1.5)" fill="rgba(198, 198, 198, 1)"></use><use xlink:href="#SvgjsG1272" transform="translate(123, 184.5) scale(1.5)" fill="rgba(198, 198, 198, 1)"></use><use xlink:href="#SvgjsG1272" transform="translate(123, 246) scale(1.5)" fill="rgba(198, 198, 198, 1)"></use><use xlink:href="#SvgjsG1272" transform="translate(123, 307.5) scale(1.5)" fill="rgba(198, 198, 198, 1)"></use><use xlink:href="#SvgjsG1272" transform="translate(123, 369) scale(1.5)" fill="rgba(198, 198, 198, 1)"></use><use xlink:href="#SvgjsG1272" transform="translate(123, 430.5) scale(1.5)" fill="rgba(198, 198, 198, 1)"></use><use xlink:href="#SvgjsG1272" transform="translate(123, 492) scale(1.5)" fill="rgba(198, 198, 198, 1)"></use><use xlink:href="#SvgjsG1272" transform="translate(123, 553.5) scale(1.5)" fill="rgba(198, 198, 198, 1)"></use><use xlink:href="#SvgjsG1272" transform="translate(184.5, 0) scale(1.5)" fill="rgba(198, 198, 198, 1)"></use><use xlink:href="#SvgjsG1272" transform="translate(184.5, 61.5) scale(1.5)" fill="rgba(198, 198, 198, 1)"></use><use xlink:href="#SvgjsG1272" transform="translate(184.5, 123) scale(1.5)" fill="rgba(198, 198, 198, 1)"></use><use xlink:href="#SvgjsG1272" transform="translate(184.5, 184.5) scale(1.5)" fill="rgba(198, 198, 198, 1)"></use><use xlink:href="#SvgjsG1272" transform="translate(184.5, 246) scale(1.5)" fill="rgba(198, 198, 198, 1)"></use><use xlink:href="#SvgjsG1272" transform="translate(184.5, 307.5) scale(1.5)" fill="rgba(198, 198, 198, 1)"></use><use xlink:href="#SvgjsG1272" transform="translate(184.5, 369) scale(1.5)" fill="rgba(198, 198, 198, 1)"></use><use xlink:href="#SvgjsG1272" transform="translate(184.5, 430.5) scale(1.5)" fill="rgba(198, 198, 198, 1)"></use><use xlink:href="#SvgjsG1272" transform="translate(184.5, 492) scale(1.5)" fill="rgba(198, 198, 198, 1)"></use><use xlink:href="#SvgjsG1272" transform="translate(184.5, 553.5) scale(1.5)" fill="rgba(198, 198, 198, 1)"></use><use xlink:href="#SvgjsG1272" transform="translate(246, 0) scale(1.5)" fill="rgba(198, 198, 198, 1)"></use><use xlink:href="#SvgjsG1272" transform="translate(246, 61.5) scale(1.5)" fill="rgba(198, 198, 198, 1)"></use><use xlink:href="#SvgjsG1272" transform="translate(246, 123) scale(1.5)" fill="rgba(198, 198, 198, 1)"></use><use xlink:href="#SvgjsG1272" transform="translate(246, 184.5) scale(1.5)" fill="rgba(198, 198, 198, 1)"></use><use xlink:href="#SvgjsG1272" transform="translate(246, 246) scale(1.5)" fill="rgba(198, 198, 198, 1)"></use><use xlink:href="#SvgjsG1272" transform="translate(246, 307.5) scale(1.5)" fill="rgba(198, 198, 198, 1)"></use><use xlink:href="#SvgjsG1272" transform="translate(246, 369) scale(1.5)" fill="rgba(198, 198, 198, 1)"></use><use xlink:href="#SvgjsG1272" transform="translate(246, 430.5) scale(1.5)" fill="rgba(198, 198, 198, 1)"></use><use xlink:href="#SvgjsG1272" transform="translate(246, 492) scale(1.5)" fill="rgba(198, 198, 198, 1)"></use><use xlink:href="#SvgjsG1272" transform="translate(246, 553.5) scale(1.5)" fill="rgba(198, 198, 198, 1)"></use><use xlink:href="#SvgjsG1272" transform="translate(307.5, 0) scale(1.5)" fill="rgba(198, 198, 198, 1)"></use><use xlink:href="#SvgjsG1272" transform="translate(307.5, 61.5) scale(1.5)" fill="rgba(198, 198, 198, 1)"></use><use xlink:href="#SvgjsG1272" transform="translate(307.5, 123) scale(1.5)" fill="rgba(198, 198, 198, 1)"></use><use xlink:href="#SvgjsG1272" transform="translate(307.5, 184.5) scale(1.5)" fill="rgba(198, 198, 198, 1)"></use><use xlink:href="#SvgjsG1272" transform="translate(307.5, 246) scale(1.5)" fill="rgba(198, 198, 198, 1)"></use><use xlink:href="#SvgjsG1272" transform="translate(307.5, 307.5) scale(1.5)" fill="rgba(198, 198, 198, 1)"></use><use xlink:href="#SvgjsG1272" transform="translate(307.5, 369) scale(1.5)" fill="rgba(198, 198, 198, 1)"></use><use xlink:href="#SvgjsG1272" transform="translate(307.5, 430.5) scale(1.5)" fill="rgba(198, 198, 198, 1)"></use><use xlink:href="#SvgjsG1272" transform="translate(307.5, 492) scale(1.5)" fill="rgba(198, 198, 198, 1)"></use><use xlink:href="#SvgjsG1272" transform="translate(307.5, 553.5) scale(1.5)" fill="rgba(198, 198, 198, 1)"></use><use xlink:href="#SvgjsG1272" transform="translate(369, 0) scale(1.5)" fill="rgba(198, 198, 198, 1)"></use><use xlink:href="#SvgjsG1272" transform="translate(369, 61.5) scale(1.5)" fill="rgba(198, 198, 198, 1)"></use><use xlink:href="#SvgjsG1272" transform="translate(369, 123) scale(1.5)" fill="rgba(198, 198, 198, 1)"></use><use xlink:href="#SvgjsG1272" transform="translate(369, 184.5) scale(1.5)" fill="rgba(198, 198, 198, 1)"></use><use xlink:href="#SvgjsG1272" transform="translate(369, 246) scale(1.5)" fill="rgba(198, 198, 198, 1)"></use><use xlink:href="#SvgjsG1272" transform="translate(369, 307.5) scale(1.5)" fill="rgba(198, 198, 198, 1)"></use><use xlink:href="#SvgjsG1272" transform="translate(369, 369) scale(1.5)" fill="rgba(198, 198, 198, 1)"></use><use xlink:href="#SvgjsG1272" transform="translate(369, 430.5) scale(1.5)" fill="rgba(198, 198, 198, 1)"></use><use xlink:href="#SvgjsG1272" transform="translate(369, 492) scale(1.5)" fill="rgba(198, 198, 198, 1)"></use><use xlink:href="#SvgjsG1272" transform="translate(369, 553.5) scale(1.5)" fill="rgba(198, 198, 198, 1)"></use><use xlink:href="#SvgjsG1272" transform="translate(430.5, 0) scale(1.5)" fill="rgba(198, 198, 198, 1)"></use><use xlink:href="#SvgjsG1272" transform="translate(430.5, 61.5) scale(1.5)" fill="rgba(198, 198, 198, 1)"></use><use xlink:href="#SvgjsG1272" transform="translate(430.5, 123) scale(1.5)" fill="rgba(198, 198, 198, 1)"></use><use xlink:href="#SvgjsG1272" transform="translate(430.5, 184.5) scale(1.5)" fill="rgba(198, 198, 198, 1)"></use><use xlink:href="#SvgjsG1272" transform="translate(430.5, 246) scale(1.5)" fill="rgba(198, 198, 198, 1)"></use><use xlink:href="#SvgjsG1272" transform="translate(430.5, 307.5) scale(1.5)" fill="rgba(198, 198, 198, 1)"></use><use xlink:href="#SvgjsG1272" transform="translate(430.5, 369) scale(1.5)" fill="rgba(198, 198, 198, 1)"></use><use xlink:href="#SvgjsG1272" transform="translate(430.5, 430.5) scale(1.5)" fill="rgba(198, 198, 198, 1)"></use><use xlink:href="#SvgjsG1272" transform="translate(430.5, 492) scale(1.5)" fill="rgba(198, 198, 198, 1)"></use><use xlink:href="#SvgjsG1272" transform="translate(430.5, 553.5) scale(1.5)" fill="rgba(198, 198, 198, 1)"></use><use xlink:href="#SvgjsG1272" transform="translate(492, 0) scale(1.5)" fill="rgba(198, 198, 198, 1)"></use><use xlink:href="#SvgjsG1272" transform="translate(492, 61.5) scale(1.5)" fill="rgba(198, 198, 198, 1)"></use><use xlink:href="#SvgjsG1272" transform="translate(492, 123) scale(1.5)" fill="rgba(198, 198, 198, 1)"></use><use xlink:href="#SvgjsG1272" transform="translate(492, 184.5) scale(1.5)" fill="rgba(198, 198, 198, 1)"></use><use xlink:href="#SvgjsG1272" transform="translate(492, 246) scale(1.5)" fill="rgba(198, 198, 198, 1)"></use><use xlink:href="#SvgjsG1272" transform="translate(492, 307.5) scale(1.5)" fill="rgba(198, 198, 198, 1)"></use><use xlink:href="#SvgjsG1272" transform="translate(492, 369) scale(1.5)" fill="rgba(198, 198, 198, 1)"></use><use xlink:href="#SvgjsG1272" transform="translate(492, 430.5) scale(1.5)" fill="rgba(198, 198, 198, 1)"></use><use xlink:href="#SvgjsG1272" transform="translate(492, 492) scale(1.5)" fill="rgba(198, 198, 198, 1)"></use><use xlink:href="#SvgjsG1272" transform="translate(492, 553.5) scale(1.5)" fill="rgba(198, 198, 198, 1)"></use><use xlink:href="#SvgjsG1272" transform="translate(553.5, 0) scale(1.5)" fill="rgba(198, 198, 198, 1)"></use><use xlink:href="#SvgjsG1272" transform="translate(553.5, 61.5) scale(1.5)" fill="rgba(198, 198, 198, 1)"></use><use xlink:href="#SvgjsG1272" transform="translate(553.5, 123) scale(1.5)" fill="rgba(198, 198, 198, 1)"></use><use xlink:href="#SvgjsG1272" transform="translate(553.5, 184.5) scale(1.5)" fill="rgba(198, 198, 198, 1)"></use><use xlink:href="#SvgjsG1272" transform="translate(553.5, 246) scale(1.5)" fill="rgba(198, 198, 198, 1)"></use><use xlink:href="#SvgjsG1272" transform="translate(553.5, 307.5) scale(1.5)" fill="rgba(198, 198, 198, 1)"></use><use xlink:href="#SvgjsG1272" transform="translate(553.5, 369) scale(1.5)" fill="rgba(198, 198, 198, 1)"></use><use xlink:href="#SvgjsG1272" transform="translate(553.5, 430.5) scale(1.5)" fill="rgba(198, 198, 198, 1)"></use><use xlink:href="#SvgjsG1272" transform="translate(553.5, 492) scale(1.5)" fill="rgba(198, 198, 198, 1)"></use><use xlink:href="#SvgjsG1272" transform="translate(553.5, 553.5) scale(1.5)" fill="rgba(198, 198, 198, 1)"></use></g></defs></svg>